<?xml version="1.0" encoding="utf-8"?>
<!-- Generator: Adobe Illustrator 28.0.0, SVG Export Plug-In . SVG Version: 6.00 Build 0)  -->
<svg version="1.1" id="Слой_1" xmlns="http://www.w3.org/2000/svg" xmlns:xlink="http://www.w3.org/1999/xlink" x="0px" y="0px"
	 viewBox="0 0 446.4 380" style="enable-background:new 0 0 446.4 380;" xml:space="preserve">
<style type="text/css">
	.st0{fill:#04E061;}
	.st1{fill:#FF4053;}
	.st2{fill:#965EEB;}
	.st3{fill:#00AAFF;}
</style>
<g>
	<g>
		<g>
			<path class="st0" d="M135.8,379.3c67.7,0,122.6-54.9,122.6-122.6s-54.9-122.6-122.6-122.6S13.2,189,13.2,256.7
				C13.2,324.4,68.1,379.3,135.8,379.3z"/>
			<path class="st1" d="M348.4,363.8c40.9,0,74.1-33.2,74.1-74.1s-33.2-74.1-74.1-74.1s-74.1,33.2-74.1,74.1
				S307.5,363.8,348.4,363.8z"/>
			<path class="st2" d="M159.2,118.2c25.3,0,45.8-20.5,45.8-45.8s-20.5-45.8-45.8-45.8s-45.8,20.5-45.8,45.8
				S133.9,118.2,159.2,118.2z"/>
			<path class="st3" d="M319.6,199.7c55,0,99.6-44.6,99.6-99.6S374.6,0.5,319.6,0.5S220,45.1,220,100.1S264.6,199.7,319.6,199.7z"/>
		</g>
	</g>
</g>
</svg>
